<svg width="100%" viewBox="0 0 680 360" role="img" xmlns="http://www.w3.org/2000/svg">
<title>Invalid Missing Legend</title>
<desc>Fixture that should fail because it has no compact legend swatches.</desc>
<defs><marker id="arrow" viewBox="0 0 10 10" refX="8" refY="5" markerWidth="6" markerHeight="6" orient="auto-start-reverse"><path d="M2 1L8 5L2 9" fill="none" stroke="context-stroke" stroke-width="1.5" stroke-linecap="round" stroke-linejoin="round"/></marker></defs>
<rect x="40" y="50" width="600" height="180" rx="12" fill="none" stroke="rgb(133, 183, 235)" stroke-width="0.8"/>
<path d="M180 132 L500 132" fill="none" stroke="rgb(156, 154, 146)" stroke-width="1.5" marker-end="url(#arrow)"/>
<path d="M180 162 L500 162" fill="none" stroke="rgb(156, 154, 146)" stroke-width="1.5" marker-end="url(#arrow)"/>
<path d="M180 192 L500 192" fill="none" stroke="rgb(156, 154, 146)" stroke-width="1.5" marker-end="url(#arrow)"/>
<path d="M500 222 L180 222" fill="none" stroke="rgb(156, 154, 146)" stroke-width="1.5" marker-end="url(#arrow)"/>
<g onclick="sendPrompt('Explain this invalid item.')"><rect x="80" y="100" width="160" height="70" rx="8" fill="rgb(12, 68, 124)" stroke="rgb(133, 183, 235)" stroke-width="0.5"/><text x="160" y="132" text-anchor="middle" dominant-baseline="central" fill="rgb(181, 212, 244)" font-size="12">Source</text></g>
<rect x="440" y="100" width="160" height="70" rx="8" fill="rgb(60, 52, 137)" stroke="rgb(175, 169, 236)" stroke-width="0.5"/><text x="520" y="132" text-anchor="middle" dominant-baseline="central" fill="rgb(206, 203, 246)" font-size="12">Target</text>
<rect x="260" y="210" width="140" height="28" rx="5" fill="rgb(38, 38, 36)" stroke="rgba(222, 220, 209, 0.3)" stroke-width="0.5"/><text x="330" y="228" text-anchor="middle" dominant-baseline="central" fill="rgb(194, 192, 182)" font-size="12">Protected label</text>
<rect x="120" y="240" width="110" height="34" rx="6" fill="rgb(8, 80, 65)" stroke="rgb(93, 202, 165)" stroke-width="0.5"/><text x="175" y="262" text-anchor="middle" dominant-baseline="central" fill="rgb(159, 225, 203)" font-size="12">Extra node</text>
<rect x="450" y="240" width="110" height="34" rx="6" fill="rgb(99, 56, 6)" stroke="rgb(239, 159, 39)" stroke-width="0.5"/><text x="505" y="262" text-anchor="middle" dominant-baseline="central" fill="rgb(250, 199, 117)" font-size="12">Extra node</text>
</svg>
